# xmcd
#
# Track frame offsets:
#	150
#	24687
#	46947
#	80117
#	86345
#	99625
#	118580
#	140367
#	158995
#	172532
#	198245
#	224367
#	233955
#	263075
#	279480
#	295355
#	315572
#
# Disc length: 4483
#
# Revision: 1
# Processed by: cddbd v1.5.1PL0 Copyright (c) Steve Scherf et al.
# Submitted via: CDex 1.51
# Normalized: r0:TDELIM( - )
#
DISCID=eb118111
DTITLE=Omnibus - Litany
DYEAR=1995
DGENRE=New Age
TTITLE0=Adiemus - Adiemus
TTITLE1=Eric Serra - The Creation From "Atlantis"
TTITLE2=Madredeus - Ainda
TTITLE3=The Choir Of King's College, Cambridge - In Paradisum -Chorus- Angelorum
TTITLE4=Clannad - Buaireadh An Phosta
TTITLE5=Enigma - Return To Innocence
TTITLE6=Davy Spillane - Midnight Walker
TTITLE7=Sacred Spirit - Yeha-Noha
TTITLE8=Roger Wagner Chorale - Ave Maria (Bach/Gounod)
TTITLE9=Jon Anderson - Change We Must
TTITLE10=Dao Dezi - Ti Eliz Iza
TTITLE11=The Choir Of King's College, Cambridge - Miserere Mei,. Deus
TTITLE12=Susan Aglukark - This Child
TTITLE13=Hildegard von Bingen - Vision
TTITLE14=Chilingirian Quartet - The Last Sleep Of The Virgin
TTITLE15=Michael Nyman - IF
TTITLE16=Groupe Vocale De France - Pater Noster (Priere Traduite En Langue Vulgare Par Dante)
EXTD=YEAR: 1995
EXTT0=
EXTT1=
EXTT2=
EXTT3=
EXTT4=
EXTT5=
EXTT6=
EXTT7=
EXTT8=
EXTT9=
EXTT10=
EXTT11=
EXTT12=
EXTT13=
EXTT14=
EXTT15=
EXTT16=
PLAYORDER=
